Coordinates
version=1
nRows=16
nColumns=40
inDegrees=yes

Units are S.I. units (second, meters, Newtons, ...)
Angles are in degrees.

endheader
time	pelvis_tilt	pelvis_list	pelvis_rotation	pelvis_tx	pelvis_ty	pelvis_tz	hip_flexion_r	hip_adduction_r	hip_rotation_r	knee_angle_r	knee_angle_r_beta	ankle_angle_r	subtalar_angle_r	mtp_angle_r	hip_flexion_l	hip_adduction_l	hip_rotation_l	knee_angle_l	knee_angle_l_beta	ankle_angle_l	subtalar_angle_l	mtp_angle_l	lumbar_extension	lumbar_bending	lumbar_rotation	arm_flex_r	arm_add_r	arm_rot_r	elbow_flex_r	pro_sup_r	wrist_flex_r	wrist_dev_r	arm_flex_l	arm_add_l	arm_rot_l	elbow_flex_l	pro_sup_l	wrist_flex_l	wrist_dev_l
      9.36250000	     -1.60231593	     -4.86423132	      4.93436327	      0.98442782	      0.93340468	      0.52139695	      7.88890824	      3.28576149	    -14.41764716	     14.99060653	     14.99060653	     10.34585780	     -4.36285507	     -6.11151686	     32.65625722	    -12.25923292	      0.48148557	     59.91508184	     59.91508184	      8.94853580	    -19.31136326	     18.10870175	    -10.47749707	      4.43643699	      1.55034099	     26.55177201	    -18.75954751	     -3.04249729	     78.74962253	     44.81282187	      0.00000000	      0.00000000	     -0.46113679	     -7.78059359	     -3.83961251	     25.80878211	     45.84548530	      0.00000000	      0.00000000
      9.37585714	     -1.92364681	     -4.67343771	      5.33983415	      0.98325543	      0.93354055	      0.52158750	      7.70717926	      3.15515908	    -14.62316671	     14.58509457	     14.58509457	     10.43958127	     -4.45820199	     -6.03480440	     33.27443761	    -11.66491157	      0.15410894	     56.56291347	     56.56291347	      9.76188397	    -19.26297996	     18.20677564	    -10.36349281	      4.15702863	      1.64370200	     27.97107516	    -18.86980312	     -3.30927119	     79.93435587	     44.79227587	      0.00000000	      0.00000000	     -1.16608142	     -7.45094839	     -3.81399639	     25.47888551	     45.83120156	      0.00000000	      0.00000000
      9.38921429	     -2.15687455	     -4.38703501	      5.77141741	      0.98216048	      0.93383489	      0.52147703	      7.36819776	      2.91512987	    -14.86243056	     14.10758342	     14.10758342	     10.54325516	     -4.46094283	     -5.96898051	     33.51055860	    -10.79277915	     -0.01123953	     52.70411861	     52.70411861	     10.30522560	    -19.14908612	     18.14714861	    -10.41238901	      3.82481231	      1.51634981	     29.26548363	    -18.67399706	     -3.52893944	     81.60508956	     44.75513469	      0.00000000	      0.00000000	     -1.89033961	     -7.22935562	     -3.81358736	     25.12827235	     45.82216796	      0.00000000	      0.00000000
      9.40257143	     -2.39941904	     -4.22674119	      6.24079457	      0.98111377	      0.93390705	      0.52109029	      7.03397711	      2.74477167	    -15.46565818	     13.63348376	     13.63348376	     10.65754909	     -3.99061241	     -6.08180805	     33.55885642	     -9.91225299	      0.10969117	     48.45883014	     48.45883014	      9.88058696	    -18.93700055	     15.78092102	    -10.49708666	      3.71624536	      1.84013652	     29.80914543	    -18.89013932	     -4.25918787	     84.93535591	     44.70303582	      0.00000000	      0.00000000	     -2.41061994	     -6.88496317	     -4.02331980	     25.03777726	     45.86647311	      0.00000000	      0.00000000
      9.41592857	     -2.75978748	     -4.01207598	      6.64435907	      0.98000265	      0.93375921	      0.52063538	      6.91726885	      2.53222805	    -15.61917898	     13.31539353	     13.31539353	     10.78477000	     -4.11665665	     -6.07849612	     33.62600515	     -8.83481965	      0.55867825	     44.20107406	     44.20107406	     10.08983417	    -18.39672363	     15.74869867	    -10.37387895	      3.43803088	      1.89977960	     31.04356568	    -19.00366848	     -4.50608029	     85.78688409	     44.69319203	      0.00000000	      0.00000000	     -2.85897105	     -6.65002882	     -4.01172441	     24.81519769	     45.85883820	      0.00000000	      0.00000000
      9.42928571	     -2.95589764	     -3.80009415	      7.06254917	      0.97913811	      0.93373725	      0.51997350	      6.56974999	      2.31379029	    -15.94282845	     12.95098998	     12.95098998	     10.94460297	     -3.99262957	     -6.15756160	     33.31109204	     -7.77941798	      1.18117179	     39.81311547	     39.81311547	      9.99670164	    -17.43213009	     15.06099176	    -10.43693939	      3.23479220	      1.80275486	     32.11047085	    -18.77786204	     -4.70490877	     87.12509604	     44.66823497	      0.00000000	      0.00000000	     -3.36350116	     -6.50280631	     -4.04208504	     24.58738770	     45.85910662	      0.00000000	      0.00000000
      9.44264286	     -3.26811841	     -3.70238898	      7.47699140	      0.97834144	      0.93331030	      0.51930581	      6.38589942	      2.20094243	    -16.28629001	     12.63446993	     12.63446993	     11.08736936	     -3.89401601	     -6.24821290	     33.13131074	     -6.93536059	      1.84321198	     35.69589242	     35.69589242	     10.07628970	    -15.65829889	     14.47833184	    -10.33570790	      3.10062756	      1.85204700	     33.14517664	    -18.81336172	     -4.91222826	     88.15875638	     44.65153720	      0.00000000	      0.00000000	     -3.75311647	     -6.31243973	     -4.07575804	     24.47846087	     45.86035336	      0.00000000	      0.00000000
      9.45600000	     -3.35724293	     -3.72854292	      7.88497579	      0.97798079	      0.93296074	      0.51852219	      5.90017658	      2.23150477	    -16.88101783	     12.24337227	     12.24337227	     11.23775327	     -3.37648226	     -6.64667207	     32.41143071	     -6.34633143	      2.48630392	     31.26114662	     31.26114662	      7.87302729	    -14.18854392	      8.36221270	    -10.46277897	      3.18088784	      2.20241477	     33.55514660	    -18.95481796	     -5.67092449	     90.30892206	     44.68037282	      0.00000000	      0.00000000	     -3.91453989	     -6.09658572	     -4.56241564	     24.45876433	     45.96935192	      0.00000000	      0.00000000
      9.46935714	     -3.54159015	     -3.71214738	      8.22570362	      0.97768480	      0.93246402	      0.51775332	      5.57748974	      2.22249157	    -17.14718531	     11.97928042	     11.97928042	     11.44702559	     -3.29228541	     -6.73880920	     32.05373316	     -5.79475441	      3.07033994	     27.85846741	     27.85846741	      8.12958565	    -11.73254574	      8.57595487	    -10.40873159	      3.15321294	      2.22397274	     34.43694226	    -18.86289099	     -5.70181431	     90.94695103	     44.67229376	      0.00000000	      0.00000000	     -4.20309445	     -6.02320462	     -4.59584033	     24.35529656	     45.97222906	      0.00000000	      0.00000000
      9.48271429	     -3.72571892	     -3.73344990	      8.52992272	      0.97759078	      0.93185329	      0.51691719	      5.26281355	      2.24825986	    -17.40516684	     11.74254744	     11.74254744	     11.66754266	     -3.17392314	     -6.83279357	     31.72861544	     -5.35768810	      3.55588183	     24.96694304	     24.96694304	      8.26026162	     -9.43370691	      8.80904125	    -10.31108139	      3.15490168	      2.27126879	     35.17972996	    -18.76828215	     -5.74086286	     91.51839464	     44.66357256	      0.00000000	      0.00000000	     -4.42414253	     -5.96847385	     -4.63051499	     24.31154913	     45.97569572	      0.00000000	      0.00000000
      9.49607143	     -3.75019337	     -3.76117172	      8.81673231	      0.97787797	      0.93137508	      0.51603252	      4.71003888	      2.30783982	    -17.75894370	     11.43380900	     11.43380900	     11.96525364	     -2.80867892	     -6.94163996	     31.27224114	     -5.07524010	      3.65966643	     22.65141440	     22.65141440	      8.33330277	     -7.11049779	      8.90717206	    -10.36107132	      3.18929431	      2.25045240	     35.76393428	    -18.52645677	     -5.77495414	     92.17377655	     44.65505321	      0.00000000	      0.00000000	     -4.61092658	     -5.99752847	     -4.71423390	     24.34068899	     45.98927316	      0.00000000	      0.00000000
      9.50942857	     -3.87819264	     -3.85937058	      9.03003601	      0.97830404	      0.93060614	      0.51517239	      4.34569841	      2.41342043	    -18.03400339	     11.26251837	     11.26251837	     12.22667479	     -2.53671544	     -6.99755056	     30.98316445	     -4.87995000	      3.70904681	     20.92895040	     20.92895040	      8.27912027	     -5.44471204	      8.93898302	    -10.23961330	      3.23069758	      2.33128427	     36.23724626	    -18.36216426	     -5.82234220	     92.58353518	     44.65313177	      0.00000000	      0.00000000	     -4.72565989	     -6.01571783	     -4.79018001	     24.41645358	     46.00178433	      0.00000000	      0.00000000
      9.52278571	     -3.97363695	     -3.93731533	      9.17489259	      0.97901507	      0.92981891	      0.51424459	      3.94740236	      2.49406324	    -18.22904128	     11.13577009	     11.13577009	     12.55023283	     -2.27826921	     -7.03765661	     30.67224337	     -4.73218402	      3.53702613	     19.75255633	     19.75255633	      8.07731652	     -4.26977056	      8.87903615	    -10.10328208	      3.26823350	      2.41911168	     36.56425326	    -18.14296167	     -5.84751495	     92.85710552	     44.65261364	      0.00000000	      0.00000000	     -4.78865607	     -6.07253430	     -4.85918120	     24.48769241	     46.01392062	      0.00000000	      0.00000000
      9.53614286	     -4.07360109	     -4.09294347	      9.27258326	      0.97991835	      0.92887459	      0.51331983	      3.60114665	      2.64998931	    -18.36654938	     11.09461141	     11.09461141	     12.89007281	     -2.10756081	     -7.08658908	     30.43785325	     -4.69753179	      3.27020494	     19.13797956	     19.13797956	      7.78356732	     -3.67410475	      8.80106847	     -9.91965542	      3.37564154	      2.54218165	     36.77038445	    -17.92199535	     -5.84349917	     92.98545994	     44.65261945	      0.00000000	      0.00000000	     -4.74477839	     -6.18447183	     -4.90935545	     24.57186673	     46.02423568	      0.00000000	      0.00000000
      9.54950000	     -4.01239473	     -4.18682571	      9.28262075	      0.98134136	      0.92802453	      0.51234456	      2.99094272	      2.72331149	    -18.79572928	     11.01814502	     11.01814502	     13.54423631	     -1.04970296	     -6.62644980	     29.97340304	     -4.78767790	      2.41873573	     18.86594526	     18.86594526	      6.90786241	     -2.94454386	      6.76314932	     -9.87302048	      3.39545924	      2.51253372	     36.88252851	    -17.34171960	     -6.07513271	     92.89592165	     44.68579686	      0.00000000	      0.00000000	     -4.90017569	     -6.30452245	     -5.18789840	     25.00079111	     46.07105379	      0.00000000	      0.00000000
      9.56285714	     -4.08538511	     -4.29169480	      9.24329535	      0.98278828	      0.92695440	      0.51132480	      2.63131659	      2.81740449	    -18.73563128	     11.07899466	     11.07899466	     13.91826136	     -1.06218973	     -6.70472014	     29.67017629	     -4.79756358	      2.01805212	     18.98580292	     18.98580292	      6.53934368	     -3.16578548	      6.78632024	     -9.62940915	      3.42425524	      2.64146618	     36.76639451	    -17.15090738	     -5.98988384	     92.85126717	     44.68517600	      0.00000000	      0.00000000	     -4.80845461	     -6.46838464	     -5.22029354	     25.05371835	     46.07877291	      0.00000000	      0.00000000
